<?xml version="1.0" encoding="utf-8"?>
<!-- Generator: Adobe Illustrator 18.1.0, SVG Export Plug-In . SVG Version: 6.00 Build 0)  -->
<svg version="1.1" id="Layer_1" xmlns="http://www.w3.org/2000/svg" xmlns:xlink="http://www.w3.org/1999/xlink" width="139" height="208">
<g>
	<path fill="none" stroke="#FFFFFF" stroke-width="2" stroke-miterlimit="10" d="M82.4,189.1l5.6-10.2h41.5c6,0,7.3-8.3,7.4-9.1V120
		h-2.7l0.6-1.4c0-0.1,2.1-5.3,2.1-12.2V65H134l0.7-1.4c0,0,2.2-4.7,2.2-10.4v-46c0-3.9-2.8-6.2-7.4-6.2H8.3C5.8,1,3.7,1.7,2.5,3
		C1.5,4.1,1,5.5,1,7.2v45.9c0,5.7,2.2,10.3,2.2,10.4l0.7,1.4H1v41.5c0,6.9,2.1,12.2,2.1,12.2l0.6,1.4L1,120v49.9
		c0.1,0.8,1.4,9.1,7.4,9.1H50l5.6,10.2"/>
	<polyline fill="none" stroke="#FFFFFF" stroke-width="2" stroke-miterlimit="10" points="1,207 1,189.2 137,189.2 137,207 	"/>
</g>
</svg>
